<svg xmlns="http://www.w3.org/2000/svg"  viewBox="0 0 80 80" width="16px" height="16px" baseProfile="basic"><path fill="#f78f8f" d="M57.913,79.021c-5.826,0-10.011-3.742-13.373-6.749c-1.693-1.514-3.217-3.013-4.591-4.484 c-1.6,1.817-3.404,3.732-5.432,5.739l0,0c-3.633,3.594-7.91,5.494-12.371,5.494c-9.439,0-17.117-7.974-17.117-17.776 c0-1.85,0.273-3.675,0.811-5.422l0.122-0.308L28.357,9.315c1.858-4.966,6.535-8.294,11.672-8.294c5.012,0,9.518,3.081,11.5,7.857 l21.739,44.51c1.173,2.475,1.76,5.11,1.76,7.858C75.029,71.048,67.351,79.021,57.913,79.021z M42.652,64.577 c1.347,1.465,2.859,2.964,4.554,4.479c3.626,3.242,6.715,5.721,10.707,5.721c7.184,0,13.029-6.07,13.029-13.531 c0-2.092-0.447-4.098-1.329-5.962L47.795,10.606c-1.325-3.244-4.374-5.339-7.766-5.339c-3.486,0-6.656,2.274-7.889,5.66 l-0.087,0.203L9.688,57.271c-0.379,1.283-0.571,2.619-0.571,3.975c0,7.461,5.845,13.531,13.029,13.531 c4.283,0,7.557-2.35,9.55-4.323l0,0c2.077-2.054,3.896-3.998,5.491-5.831c-9.22-11.319-9.659-20.353-9.675-20.811 c-0.001-7.245,5.614-13.077,12.517-13.077c6.874,0,12.471,5.784,12.518,12.911C52.636,44.984,52.572,52.214,42.652,64.577z M40.029,34.981c-4.648,0-8.431,3.928-8.431,8.755c0.003,0.025,0.461,7.713,8.298,17.616c8.809-11.215,8.574-17.368,8.57-17.444 l-0.007-0.172C48.46,38.908,44.678,34.981,40.029,34.981z"/><path fill="#c74343" d="M40.029,1.021c5.012,0,9.518,3.081,11.5,7.857l21.739,44.51c1.173,2.475,1.76,5.11,1.76,7.858 c0,9.802-7.678,17.776-17.117,17.776c-5.826,0-10.011-3.742-13.373-6.749c-1.693-1.514-3.217-3.013-4.591-4.484 c-1.6,1.817-3.404,3.732-5.432,5.739c-3.632,3.594-7.91,5.494-12.37,5.494c-9.439,0-17.117-7.974-17.117-17.776 c0-1.85,0.273-3.675,0.811-5.422l0.122-0.308L28.357,9.315C30.215,4.349,34.892,1.021,40.029,1.021 M22.146,74.777 c4.283,0,7.557-2.35,9.55-4.323c2.077-2.054,3.896-3.998,5.491-5.831c-9.22-11.319-9.659-20.353-9.675-20.811 c-0.001-7.245,5.614-13.077,12.517-13.077c6.874,0,12.471,5.784,12.518,12.911c0.089,1.337,0.024,8.568-9.896,20.93 c1.347,1.465,2.859,2.964,4.554,4.479c3.625,3.242,6.715,5.721,10.707,5.721c7.184,0,13.029-6.07,13.029-13.531 c0-2.092-0.447-4.098-1.329-5.962L47.795,10.606c-1.325-3.244-4.374-5.339-7.766-5.339c-3.486,0-6.656,2.274-7.889,5.66 l-0.087,0.203L9.688,57.271c-0.379,1.283-0.571,2.619-0.571,3.975C9.117,68.707,14.962,74.777,22.146,74.777 M39.897,61.352 c8.809-11.215,8.574-17.368,8.57-17.444l-0.007-0.172c0-4.827-3.782-8.755-8.431-8.755s-8.431,3.928-8.431,8.755 C31.602,43.761,32.06,51.448,39.897,61.352 M40.029,0.021c-5.525,0-10.579,3.574-12.592,8.899L5.063,55.08l-0.016,0.034 l-0.014,0.035l-0.122,0.308l-0.014,0.036L4.885,55.53c-0.568,1.844-0.855,3.768-0.855,5.716c0,10.353,8.127,18.776,18.117,18.776 c4.729,0,9.25-2,13.074-5.783c1.689-1.672,3.284-3.341,4.752-4.973c1.224,1.269,2.532,2.528,3.9,3.752 c3.489,3.12,7.832,7.003,14.04,7.003c9.99,0,18.117-8.423,18.117-18.776c0-2.898-0.625-5.686-1.857-8.286L52.441,8.466 C50.299,3.335,45.43,0.021,40.029,0.021L40.029,0.021z M10.624,57.631l22.329-46.066l0.106-0.246l0.011-0.025l0.009-0.026 c1.089-2.992,3.882-5.002,6.949-5.002c2.984,0,5.67,1.852,6.84,4.717l0.013,0.031l0.015,0.03l21.817,44.678 c0.813,1.718,1.228,3.58,1.228,5.523c0,6.909-5.396,12.531-12.029,12.531c-3.638,0-6.577-2.369-10.04-5.466 c-1.377-1.231-2.687-2.502-3.902-3.786c9.546-12.156,9.665-19.471,9.577-20.913c-0.066-7.653-6.124-13.875-13.518-13.875 c-3.617,0-7.016,1.466-9.569,4.129c-2.546,2.655-3.948,6.188-3.948,9.948c0.014,0.421,0.428,9.48,9.37,20.782 c-1.498,1.69-3.139,3.418-4.888,5.148c-1.859,1.84-4.904,4.034-8.847,4.034c-6.633,0-12.029-5.621-12.029-12.531 C10.117,60.013,10.288,58.797,10.624,57.631L10.624,57.631z M32.599,43.698c0.019-4.259,3.345-7.718,7.431-7.718 c4.097,0,7.431,3.479,7.431,7.755l0.008,0.212c0.002,0.058,0.085,5.653-7.571,15.766C33.33,50.984,32.646,44.27,32.599,43.698 L32.599,43.698z"/></svg>