<?xml version="1.0" ?>
<!DOCTYPE svg PUBLIC '-//W3C//DTD SVG 1.1//EN' 'http://www.w3.org/Graphics/SVG/1.1/DTD/svg11.dtd'><svg
    enable-background="new 0 0 64 64" id="Layer_1" version="1.1" viewBox="0 0 64 64" xml:space="preserve"
    xmlns="http://www.w3.org/2000/svg" xmlns:xlink="http://www.w3.org/1999/xlink">
    <path
        d="M32.669,50.2c-2.052,0-3.626-0.039-5.104-0.126l-0.44-0.025c-0.702-0.04-1.427-0.082-2.152-0.154  c-1.619-0.161-3.701-0.498-5.451-1.687c-3.821-2.596-3.912-7.297-3.985-11.074l-0.007-0.358c-0.08-3.934-0.005-7.166,0.236-10.172  l0.018-0.23c0.093-1.175,0.198-2.507,0.619-3.726c0.874-2.535,2.759-4.324,5.042-4.785c1.413-0.285,8.036-0.388,12.144-0.388  c1.846,0,6.317,0.021,7.951,0.212c2.849,0.333,4.787,1.839,5.929,4.604c0.732,1.777,0.783,3.947,0.827,5.862  c0.009,0.37,0.018,0.729,0.03,1.072c0.104,2.705,0.158,5.647,0.165,8.994c0.008,4.319-0.66,9.495-5.934,11.192  c-2.07,0.666-4.295,0.755-5.789,0.764l-1.388,0.01C34.478,50.192,33.573,50.2,32.669,50.2z M33.588,19.474  c-5.524,0-10.794,0.156-11.748,0.349c-1.581,0.319-2.906,1.618-3.547,3.476c-0.337,0.978-0.428,2.123-0.516,3.231l-0.019,0.232  c-0.235,2.937-0.309,6.105-0.229,9.971l0.007,0.361c0.071,3.66,0.145,7.444,3.11,9.458c1.377,0.936,3.141,1.213,4.524,1.351  c0.697,0.069,1.394,0.109,2.069,0.147l0.444,0.026c1.437,0.084,2.974,0.123,4.985,0.123c0.898,0,1.798-0.007,2.695-0.015l1.392-0.01  c2.164-0.013,3.813-0.226,5.188-0.668c3.196-1.028,4.557-3.805,4.547-9.284c-0.007-3.322-0.06-6.24-0.163-8.921  c-0.014-0.354-0.022-0.723-0.031-1.103c-0.04-1.74-0.086-3.712-0.678-5.146c-0.873-2.118-2.163-3.129-4.312-3.38  C40.245,19.548,37.359,19.474,33.588,19.474z" />
    <path
        d="M38.545,23.786c-0.55,0-0.997-0.444-1-0.995c-0.006-1.212-0.004-3.505-0.002-5.688l0.002-2.456c0-0.552,0.448-1,1-1l0,0  c0.553,0,1,0.448,1,1l-0.002,2.457c-0.002,2.178-0.004,4.466,0.002,5.675c0.003,0.552-0.442,1.002-0.995,1.005  C38.549,23.786,38.547,23.786,38.545,23.786z" />
    <path
        d="M25.459,23.786c-0.55,0-0.998-0.445-1-0.996c-0.005-1.172-0.003-3.359-0.002-5.478l0.002-2.664c0-0.552,0.448-1,1-1l0,0  c0.552,0,1,0.448,1,1l-0.002,2.666c-0.001,2.115-0.003,4.296,0.002,5.467c0.002,0.552-0.443,1.002-0.996,1.004  C25.462,23.786,25.46,23.786,25.459,23.786z" />
    <path
        d="M24.729,29.678c-3.761,0-6.756-0.006-7.896-0.022c-0.552-0.008-0.993-0.462-0.985-1.015c0.008-0.547,0.454-0.985,1-0.985  c0.005,0,0.01,0,0.015,0c2.412,0.036,13.714,0.019,21.968,0.009c3.402-0.005,6.385-0.009,8.218-0.009c0.553,0,1,0.448,1,1  s-0.447,1-1,1c-1.832,0-4.813,0.004-8.215,0.009C34.207,29.671,28.979,29.678,24.729,29.678z" />
</svg>