<svg xmlns="http://www.w3.org/2000/svg" xmlns:xlink="http://www.w3.org/1999/xlink" version="1.1" x="0px" y="0px"
  viewBox="0 0 1000 1000" enable-background="new 0 0 1000 1000" xml:space="preserve">
  <metadata> Svg Vector Icons : http://www.onlinewebfonts.com/icon </metadata>
  <g>
    <g transform="translate(0.000000,511.000000) scale(0.100000,-0.100000)">
      <path
        d="M1866.8,3757.4c-851.2-425.6-1578.1-800.6-1612.6-832.7c-36.8-34.5-85.1-101.2-110.4-147.2c-41.4-82.8-43.7-184-43.7-3400.1c0-3216,2.3-3317.3,43.7-3400.1c89.7-172.5,257.7-280.7,444-280.7c85.1-2.3,306,101.2,1520.6,706.2l1419.4,708.5l1424-710.9l1421.7-710.8l126.5,13.8c105.8,9.2,363.5,131.1,1654,775.3c839.7,421,1557.4,791.3,1591.9,823.6c36.8,34.5,85.1,101.2,110.4,147.2c41.4,82.8,43.7,184,43.7,3400.1c0,3216-2.3,3317.3-43.7,3400.1c-89.7,172.5-257.6,280.7-444,280.7c-85.1,2.3-306-101.2-1518.3-706.3l-1421.7-708.5l-1419.4,708.5c-1274.5,634.9-1433.2,708.5-1529.8,706.3C3426.5,4530.3,3228.6,4438.3,1866.8,3757.4z M3040,603.4l-6.9-2640.9l-966.2-487.7c-531.4-269.2-973.1-487.7-984.6-487.7c-9.2-2.3-13.8,1184.7-11.5,2638.6l6.9,2638.6l966.2,487.7c531.4,269.1,973.1,487.7,984.6,487.7C3037.7,3242.1,3042.3,2055,3040,603.4z M5011.5,2752.1l966.2-487.7l6.9-2640.9c2.3-1451.6-2.3-2638.6-11.5-2636.4c-11.5,0-453.2,218.5-984.6,487.7l-966.2,487.7l-6.9,2640.9c-2.3,1451.6,2.3,2638.6,11.5,2636.3C4038.4,3239.8,4480.1,3021.2,5011.5,2752.1z M8929.2,603.4l-6.9-2640.9l-966.2-487.7c-531.4-269.2-973.1-487.7-984.6-487.7c-9.2-2.3-13.8,1184.7-11.5,2638.6l6.9,2638.6l966.2,487.7c531.4,269.1,973.1,487.7,984.6,487.7C8926.9,3242.1,8931.5,2055,8929.2,603.4z" />
    </g>
  </g>
</svg>