<?xml version="1.0" encoding="utf-8"?>
<!-- Svg Vector Icons : http://www.onlinewebfonts.com/icon -->
<!DOCTYPE svg PUBLIC "-//W3C//DTD SVG 1.1//EN" "http://www.w3.org/Graphics/SVG/1.1/DTD/svg11.dtd">
<svg version="1.1" xmlns="http://www.w3.org/2000/svg" xmlns:xlink="http://www.w3.org/1999/xlink" x="0px" y="0px"
  viewBox="0 0 1000 1000" enable-background="new 0 0 1000 1000" xml:space="preserve">
  <metadata> Svg Vector Icons : http://www.onlinewebfonts.com/icon </metadata>
  <g>
    <g transform="translate(0.000000,512.000000) scale(0.100000,-0.100000)">
      <path
        d="M1871.3,4999.9c-283.3-40.2-605-166.5-865.3-335c-143.6-93.8-455.6-405.8-549.4-549.4c-176.1-269.9-292.9-578.2-335-882.6c-28.7-206.8-28.7-6019,0-6225.8c63.2-461.4,281.4-886.4,616.4-1208c327.4-312.1,721.8-503.5,1165.9-560.9c109.1-15.3,1097-19.2,3202.9-15.3l3044,5.7l191.4,51.7c371.4,103.4,716,304.4,970.6,566.7c248.9,258.4,428.8,576.3,528.4,932.3l51.7,191.4l5.7,3044c3.8,2105.9,0,3093.7-15.3,3202.9c-57.4,444.2-248.9,838.5-560.9,1165.9c-321.6,335-746.6,553.3-1208,616.4C7932.5,5024.8,2045.6,5024.8,1871.3,4999.9z M4647.3,2522.6l47.9-46v-978.3V520.1l-47.9-45.9l-45.9-47.9h-978.3h-978.3l-45.9,47.9l-47.9,45.9v978.3v978.3l47.9,46l45.9,47.9h978.3h978.3L4647.3,2522.6z M7404.1,2522.6l47.9-46v-978.3V520.1l-47.9-45.9l-46-47.9h-978.3h-978.3l-46,47.9l-47.9,45.9v978.3v978.3l47.9,46l46,47.9h978.3h978.3L7404.1,2522.6z M4647.3-234.2l47.9-45.9v-978.3v-978.3l-47.9-45.9l-45.9-47.9h-978.3h-978.3l-45.9,47.9l-47.9,45.9v978.3v978.3l47.9,45.9l45.9,47.9h978.3h978.3L4647.3-234.2z M7404.1-234.2l47.9-45.9v-978.3v-978.3l-47.9-45.9l-46-47.9h-978.3h-978.3l-46,47.9l-47.9,45.9v978.3v978.3l47.9,45.9l46,47.9h978.3h978.3L7404.1-234.2z" />
      <path d="M2857.3,1498.4V732.6h765.8h765.8v765.8v765.8h-765.8h-765.8V1498.4z" />
      <path d="M5614.1,1498.4V732.6h765.8h765.8v765.8v765.8h-765.8h-765.8V1498.4z" />
      <path d="M2857.3-1258.4v-765.8h765.8h765.8v765.8v765.8h-765.8h-765.8V-1258.4z" />
      <path d="M5614.1-1258.4v-765.8h765.8h765.8v765.8v765.8h-765.8h-765.8V-1258.4z" />
    </g>
  </g>
</svg>